<?xml version="1.0" encoding="utf-8"?>
<!-- Generator: Adobe Illustrator 24.1.1, SVG Export Plug-In . SVG Version: 6.00 Build 0)  -->
<svg version="1.1" id="Layer_1" xmlns="http://www.w3.org/2000/svg" xmlns:xlink="http://www.w3.org/1999/xlink" x="0px" y="0px"
	 viewBox="0 0 512 512" style="enable-background:new 0 0 512 512;" xml:space="preserve">
<style type="text/css">
	.st0{fill:#A179DC;}
	.st1{fill:#280068;}
	.st2{fill:#390091;}
	.st3{fill:#FFFFFF;}
</style>
<g>
	<path class="st0" d="M483.8,150.5c0-8.6-1.8-16.2-5.6-22.7c-3.7-6.4-9.1-11.8-16.5-16.1c-60.6-35-121.4-69.8-182-104.8
		c-16.3-9.4-32.2-9.1-48.4,0.5c-24.1,14.2-145,83.5-181,104.3c-14.8,8.6-22,21.7-22.1,38.8c0,70.3,0,140.6,0,211
		c0,8.4,1.8,15.9,5.3,22.3c3.7,6.6,9.2,12.1,16.7,16.5c36,20.9,156.9,90.1,181,104.3c16.2,9.6,32.1,9.9,48.4,0.5
		c60.6-35,121.3-69.9,182-104.8c7.5-4.3,13.1-9.9,16.7-16.5c3.6-6.4,5.3-13.9,5.3-22.3C483.8,361.5,483.8,220.9,483.8,150.5"/>
	<path class="st1" d="M256.7,255.3L33.6,383.8c3.7,6.6,9.2,12.1,16.7,16.5c36,20.9,156.9,90.1,181,104.3c16.2,9.6,32.1,9.9,48.4,0.5
		c60.6-35,121.3-69.9,182-104.8c7.5-4.3,13.1-9.9,16.7-16.5L256.7,255.3"/>
	<path class="st2" d="M483.8,150.5c0-8.6-1.8-16.2-5.6-22.7L256.7,255.3l221.8,128.5c3.6-6.4,5.3-13.9,5.3-22.3
		C483.8,361.5,483.8,220.9,483.8,150.5"/>
	<path class="st3" d="M388.1,207.3v24h24v-24h12v24h24v12h-24v24h24v12h-24v24h-12v-24h-24v24h-12v-24h-24v-12h24v-24h-24v-12h24
		v-24H388.1z M412.1,243.3h-24v24h24V243.3z"/>
	<path class="st3" d="M257.2,86.7c62.6,0,117.3,34,146.6,84.6l-0.3-0.5l-73.7,42.4c-14.5-24.6-41.1-41.2-71.7-41.5l-1,0
		c-46.6,0-84.3,37.8-84.3,84.3c0,15.2,4.1,29.5,11.1,41.8c14.5,25.4,41.9,42.5,73.2,42.5c31.5,0,59-17.3,73.5-43l-0.4,0.6l73.6,42.6
		c-29,50.1-82.9,84.1-144.8,84.7l-1.9,0c-62.8,0-117.7-34.2-146.9-85.1C96,315.4,87.9,286.7,87.9,256
		C87.9,162.5,163.7,86.7,257.2,86.7z"/>
</g>
</svg>
