<svg id="visual" viewBox="0 0 900 120" width="900" height="120" xmlns="http://www.w3.org/2000/svg" xmlns:xlink="http://www.w3.org/1999/xlink" version="1.1"><path d="M0 41L30 36.5C60 32 120 23 180 21.3C240 19.7 300 25.3 360 27C420 28.7 480 26.3 540 23.7C600 21 660 18 720 19.7C780 21.3 840 27.7 870 30.8L900 34L900 121L870 121C840 121 780 121 720 121C660 121 600 121 540 121C480 121 420 121 360 121C300 121 240 121 180 121C120 121 60 121 30 121L0 121Z" fill="#b5b5b7"></path><path d="M0 33L30 36.8C60 40.7 120 48.3 180 50C240 51.7 300 47.3 360 43.5C420 39.7 480 36.3 540 36.5C600 36.7 660 40.3 720 44.7C780 49 840 54 870 56.5L900 59L900 121L870 121C840 121 780 121 720 121C660 121 600 121 540 121C480 121 420 121 360 121C300 121 240 121 180 121C120 121 60 121 30 121L0 121Z" fill="#8e8f91"></path><path d="M0 50L30 50.7C60 51.3 120 52.7 180 52.5C240 52.3 300 50.7 360 52.5C420 54.3 480 59.7 540 62.7C600 65.7 660 66.3 720 66.3C780 66.3 840 65.7 870 65.3L900 65L900 121L870 121C840 121 780 121 720 121C660 121 600 121 540 121C480 121 420 121 360 121C300 121 240 121 180 121C120 121 60 121 30 121L0 121Z" fill="#696a6d"></path><path d="M0 80L30 80C60 80 120 80 180 80.7C240 81.3 300 82.7 360 81.8C420 81 480 78 540 76.3C600 74.7 660 74.3 720 72C780 69.7 840 65.3 870 63.2L900 61L900 121L870 121C840 121 780 121 720 121C660 121 600 121 540 121C480 121 420 121 360 121C300 121 240 121 180 121C120 121 60 121 30 121L0 121Z" fill="#46484b"></path><path d="M0 78L30 80.7C60 83.3 120 88.7 180 88.8C240 89 300 84 360 82.3C420 80.7 480 82.3 540 84C600 85.7 660 87.3 720 89.2C780 91 840 93 870 94L900 95L900 121L870 121C840 121 780 121 720 121C660 121 600 121 540 121C480 121 420 121 360 121C300 121 240 121 180 121C120 121 60 121 30 121L0 121Z" fill="#25282c"></path><path d="M0 104L30 104.7C60 105.3 120 106.7 180 107.2C240 107.7 300 107.3 360 107.5C420 107.7 480 108.3 540 106C600 103.7 660 98.3 720 97.5C780 96.7 840 100.3 870 102.2L900 104L900 121L870 121C840 121 780 121 720 121C660 121 600 121 540 121C480 121 420 121 360 121C300 121 240 121 180 121C120 121 60 121 30 121L0 121Z" fill="#01070e"></path></svg>